<?xml version="1.0" encoding="UTF-8"?>
<svg id="Layer_2" data-name="Layer 2" xmlns="http://www.w3.org/2000/svg" viewBox="0 0 1127.26 150.42">
  <defs>
    <style>
      .cls-1 {
        fill: #06110c;
      }

      .cls-1, .cls-2 {
        stroke-width: 0px;
      }

      .cls-2 {
        fill: #28b663;
      }
    </style>
  </defs>
  <g id="Layer_1-2" data-name="Layer 1">
    <g>
      <path class="cls-1" d="m254.36,27.65h14.83l-34.74,95.13h-16.3l-35.41-95.13h15.1l19.91,55.31c3.29,9.26,6.14,17.99,8.55,26.19,1.33-4.46,4.18-13.19,8.55-26.19l19.51-55.31Z"/>
      <path class="cls-1" d="m277.79,44.08v-14.3h13.63v14.3h-13.63Zm.14,78.7V53.83h13.36v68.94h-13.36Z"/>
      <path class="cls-1" d="m338.99,52.9v12.69h-3.34c-6.86,0-12.16,1.69-15.9,5.08-3.74,3.38-5.61,8.28-5.61,14.69v37.41h-13.36V53.83h12.83v12.29c4.36-8.91,11.53-13.37,21.51-13.37,1.96,0,3.25.04,3.87.14Z"/>
      <path class="cls-1" d="m384.11,64.79h-13.89v41.42c0,2.05.6,3.54,1.8,4.48s3.23,1.4,6.08,1.4h6.01v10.69c-2.94.27-5.65.4-8.15.4-6.5,0-11.31-1.25-14.43-3.74-3.12-2.5-4.67-6.5-4.67-12.03v-42.62h-11.09v-10.96h11.09v-19.78h13.36v19.78h13.89v10.96Z"/>
      <path class="cls-1" d="m438.99,53.83h13.36v68.94h-12.83v-10.29c-5.25,7.93-12.47,11.89-21.64,11.89-7.57,0-13.5-2.14-17.77-6.41s-6.41-10.24-6.41-17.91v-46.23h13.36v44.36c0,9.62,4.85,14.43,14.56,14.43,4.9,0,9.02-1.76,12.36-5.28,3.34-3.52,5.01-8.39,5.01-14.63v-38.88Z"/>
      <path class="cls-1" d="m525.34,112.49v10.29c-1.96.27-4.14.4-6.55.4-4.28,0-7.46-.78-9.55-2.34-2.09-1.56-3.36-4.03-3.81-7.41-4.63,7.3-12.11,10.96-22.44,10.96-7.57,0-13.56-1.81-17.97-5.41s-6.61-8.62-6.61-15.03c0-12.47,8.64-19.6,25.92-21.38l10.16-1.07c3.56-.45,6.17-1.36,7.82-2.74,1.65-1.38,2.47-3.37,2.47-5.95,0-3.48-1.09-5.99-3.27-7.55-2.19-1.56-5.82-2.34-10.89-2.34-5.52,0-9.49.91-11.89,2.74-2.4,1.82-3.79,5.05-4.15,9.68h-13.22c.98-15.41,10.73-23.11,29.26-23.11s27.26,6.77,27.26,20.31v36.48c0,2.32,1.25,3.48,3.74,3.48h3.74Zm-26.19-3.34c3.74-3.21,5.61-7.75,5.61-13.63v-7.21c-1.69,1.43-4.54,2.36-8.55,2.81l-9.62,1.07c-5.17.63-8.86,1.85-11.09,3.68-2.22,1.82-3.34,4.38-3.34,7.68s1.09,5.86,3.27,7.68c2.18,1.83,5.37,2.74,9.55,2.74,5.7,0,10.42-1.6,14.17-4.81Z"/>
      <path class="cls-1" d="m534.56,122.78V27.65h13.36v95.13h-13.36Z"/>
      <path class="cls-1" d="m629.97,122.78l-9.36-24.72h-42.76l-9.22,24.72h-14.83l37.15-95.13h16.43l37.68,95.13h-15.1Zm-47.57-37.14h33.54l-2.01-5.21c-4.72-11.76-9.66-24.77-14.83-39.02-6.15,16.39-11.05,29.4-14.7,39.02l-2,5.21Z"/>
      <path class="cls-1" d="m702.04,27.65h13.36v95.13h-12.83v-10.16c-5.17,7.84-12.78,11.76-22.85,11.76s-17.28-3.25-22.98-9.75c-5.7-6.51-8.55-15.28-8.55-26.32s2.85-19.82,8.55-26.32c5.7-6.5,13.36-9.75,22.98-9.75s17.15,3.65,22.31,10.96V27.65Zm-19.78,85.24c6.33,0,11.27-2.18,14.83-6.54,3.56-4.19,5.34-10.2,5.34-18.04s-1.78-13.81-5.34-18.17c-3.56-4.28-8.51-6.41-14.83-6.41s-11.04,2.23-14.69,6.69c-3.66,4.45-5.48,10.6-5.48,18.44s1.82,13.58,5.48,17.77c3.65,4.19,8.55,6.28,14.69,6.28Z"/>
      <path class="cls-1" d="m778.65,27.65h13.36v95.13h-12.83v-10.16c-5.17,7.84-12.79,11.76-22.85,11.76s-17.28-3.25-22.98-9.75c-5.7-6.51-8.55-15.28-8.55-26.32s2.85-19.82,8.55-26.32c5.7-6.5,13.36-9.75,22.98-9.75s17.15,3.65,22.32,10.96V27.65Zm-19.78,85.24c6.33,0,11.28-2.18,14.83-6.54,3.57-4.19,5.34-10.2,5.34-18.04s-1.77-13.81-5.34-18.17c-3.56-4.28-8.51-6.41-14.83-6.41s-11.04,2.23-14.69,6.69c-3.66,4.45-5.48,10.6-5.48,18.44s1.82,13.58,5.48,17.77c3.65,4.19,8.55,6.28,14.69,6.28Z"/>
      <path class="cls-1" d="m840.01,52.9v12.69h-3.34c-6.87,0-12.16,1.69-15.91,5.08-3.73,3.38-5.6,8.28-5.6,14.69v37.41h-13.36V53.83h12.83v12.29c4.36-8.91,11.53-13.37,21.51-13.37,1.96,0,3.25.04,3.87.14Z"/>
      <path class="cls-1" d="m908.05,92.71h-51.98c.62,6.77,2.63,11.87,6.02,15.3,3.38,3.43,7.97,5.15,13.76,5.15,8.73,0,14.43-3.84,17.1-11.49h13.49c-1.87,7.04-5.49,12.58-10.89,16.63-5.39,4.05-12.04,6.08-19.97,6.08-9.89,0-17.85-3.3-23.91-9.89-6.06-6.59-9.08-15.32-9.08-26.19s3.02-19.6,9.08-26.19c6.06-6.59,13.94-9.89,23.65-9.89s18.17,3.43,24.04,10.29c5.79,6.86,8.69,15.63,8.69,26.32v3.87Zm-45.63-24.45c-3.35,3.21-5.42,7.84-6.22,13.9h38.09c-.63-5.61-2.61-10.13-5.95-13.56-3.34-3.43-7.68-5.15-13.02-5.15s-9.55,1.6-12.89,4.81Z"/>
      <path class="cls-1" d="m912.49,100.87h13.36c.53,4.81,2.1,8.19,4.68,10.15,2.59,1.96,6.68,2.94,12.29,2.94,10.15,0,15.23-3.21,15.23-9.62,0-2.76-1.07-4.9-3.21-6.41-2.13-1.51-5.96-2.76-11.49-3.74l-7.08-1.34c-14.61-2.67-21.91-9.53-21.91-20.58,0-6.14,2.36-11.02,7.08-14.63,4.72-3.61,11.23-5.41,19.51-5.41,18.97,0,28.68,7.7,29.12,23.11h-12.96c-.26-4.63-1.69-7.9-4.28-9.82-2.58-1.91-6.55-2.87-11.89-2.87-4.28,0-7.57.8-9.89,2.4-2.32,1.6-3.47,3.87-3.47,6.82,0,2.67,1.02,4.74,3.07,6.21,2.06,1.47,5.31,2.65,9.76,3.54l7.21,1.2c8.46,1.6,14.57,4.01,18.31,7.21,3.74,3.21,5.6,7.66,5.6,13.36,0,6.69-2.53,11.87-7.62,15.57-5.07,3.7-12.15,5.54-21.24,5.54-19.16,0-29.22-7.88-30.2-23.65Z"/>
      <path class="cls-1" d="m975.87,100.87h13.36c.53,4.81,2.09,8.19,4.68,10.15,2.58,1.96,6.68,2.94,12.29,2.94,10.15,0,15.23-3.21,15.23-9.62,0-2.76-1.08-4.9-3.21-6.41-2.14-1.51-5.97-2.76-11.49-3.74l-7.08-1.34c-14.61-2.67-21.91-9.53-21.91-20.58,0-6.14,2.36-11.02,7.08-14.63,4.71-3.61,11.22-5.41,19.51-5.41,18.97,0,28.68,7.7,29.12,23.11h-12.96c-.27-4.63-1.7-7.9-4.28-9.82-2.59-1.91-6.55-2.87-11.89-2.87-4.28,0-7.57.8-9.89,2.4-2.32,1.6-3.48,3.87-3.48,6.82,0,2.67,1.03,4.74,3.08,6.21,2.05,1.47,5.3,2.65,9.75,3.54l7.22,1.2c8.45,1.6,14.56,4.01,18.3,7.21,3.74,3.21,5.61,7.66,5.61,13.36,0,6.69-2.53,11.87-7.62,15.57s-12.16,5.54-21.25,5.54c-19.15,0-29.21-7.88-30.19-23.65Z"/>
      <path class="cls-2" d="m1067.92,52.76h4.77v31.71h-4.77v-14.12h-16.35v14.12h-4.77v-31.71h4.77v13.23h16.35v-13.23Z"/>
      <path class="cls-2" d="m1094.24,61.49h4.45v22.98h-4.28v-3.43c-1.75,2.64-4.16,3.96-7.21,3.96-2.52,0-4.49-.71-5.92-2.14-1.43-1.43-2.14-3.41-2.14-5.97v-15.41h4.45v14.79c0,3.2,1.62,4.81,4.86,4.81,1.63,0,3-.59,4.11-1.76,1.12-1.17,1.68-2.8,1.68-4.87v-12.96Z"/>
      <path class="cls-2" d="m1124.4,64.21c1.9,2.17,2.85,5.09,2.85,8.77s-.95,6.56-2.85,8.73c-1.93,2.2-4.48,3.3-7.66,3.3-3.38,0-5.94-1.33-7.66-4.01v3.48h-4.28v-31.71h4.45v11.94c1.73-2.5,4.22-3.74,7.49-3.74s5.77,1.08,7.66,3.25Zm-8.51,16.97c2.08,0,3.73-.74,4.95-2.22,1.19-1.46,1.78-3.5,1.78-6.15s-.6-4.53-1.78-5.92c-1.19-1.4-2.84-2.09-4.95-2.09s-3.68.71-4.9,2.14c-1.22,1.49-1.83,3.5-1.83,6.06s.61,4.55,1.83,6.01c1.19,1.45,2.82,2.18,4.9,2.18Z"/>
      <path class="cls-2" d="m152.32,135.59c-21.17,0-32.05-11.59-41.66-21.82-9.44-10.05-17.59-18.73-34.5-18.73-16.91,0-25.06,8.68-34.5,18.73C32.05,124,21.17,135.59,0,135.59v-9.82c16.91,0,25.06-8.68,34.5-18.73,9.6-10.23,20.49-21.82,41.66-21.82,21.17,0,32.05,11.59,41.66,21.82,9.44,10.05,17.59,18.73,34.5,18.73v9.82Z"/>
      <path class="cls-2" d="m76.16,65.21c-21.17,0-32.05-11.59-41.66-21.82C25.06,33.33,16.91,24.65,0,24.65v-9.82c21.17,0,32.05,11.59,41.66,21.82,9.44,10.05,17.59,18.73,34.5,18.73,16.92,0,25.07-8.68,34.51-18.73,9.6-10.23,20.5-21.82,41.66-21.82v9.82c-16.91,0-25.06,8.68-34.5,18.73-9.6,10.23-20.5,21.82-41.66,21.82Z"/>
      <path class="cls-2" d="m11.04,112.87C4.44,101.47.95,88.45.95,75.21.95,33.74,34.69,0,76.16,0c20.19,0,39.14,7.89,53.37,22.21l-6.96,6.92c-12.37-12.46-28.85-19.31-46.4-19.31-36.06,0-65.39,29.34-65.39,65.39,0,11.51,3.03,22.83,8.77,32.73l-8.5,4.92Z"/>
      <path class="cls-2" d="m76.16,150.42c-20.87,0-40.98-8.78-55.17-24.09l7.2-6.68c12.34,13.31,29.82,20.95,47.97,20.95,36.06,0,65.39-29.34,65.39-65.39,0-11.52-3.03-22.84-8.77-32.74l8.5-4.92c6.6,11.4,10.09,24.42,10.09,37.66,0,41.47-33.74,75.21-75.21,75.21Z"/>
      <path class="cls-2" d="m76.16,123.47c-26.61,0-48.26-21.65-48.26-48.26,0-11.99,4.42-23.48,12.45-32.36l7.28,6.59c-6.39,7.07-9.92,16.22-9.92,25.78,0,21.2,17.25,38.44,38.44,38.44,2.81,0,5.61-.3,8.31-.9l2.12,9.59c-3.4.75-6.9,1.13-10.43,1.13Z"/>
      <path class="cls-2" d="m111.96,107.58l-7.28-6.59c6.4-7.08,9.93-16.23,9.93-25.78,0-21.2-17.25-38.44-38.44-38.44-3.06,0-6.11.36-9.07,1.07l-2.3-9.54c3.71-.89,7.53-1.35,11.36-1.35,26.61,0,48.26,21.65,48.26,48.26,0,11.99-4.42,23.48-12.46,32.37Z"/>
    </g>
  </g>
</svg>