<svg width="24" height="24" viewBox="0 0 24 24" fill="none" xmlns="http://www.w3.org/2000/svg">
<path d="M19.3367 15.1057C19.6924 14.8813 19.9855 14.5706 20.189 14.2025C20.3924 13.8343 20.4994 13.4208 20.5002 13.0002C20.5002 11.6217 19.3787 10.5002 18.0002 10.5002C16.6217 10.5002 15.5002 11.6217 15.5002 13.0002C15.5002 13.8867 15.9677 14.6627 16.6657 15.1067C15.9476 15.2863 15.3044 15.6879 14.8277 16.2542C14.4153 15.9577 13.9499 15.7428 13.4567 15.6212C13.9241 15.3615 14.3136 14.9817 14.585 14.521C14.8564 14.0603 14.9997 13.5354 15.0002 13.0007C15.0002 11.3462 13.6547 10.0007 12.0002 10.0007C10.3457 10.0007 9.0002 11.3462 9.0002 13.0007C9.0007 13.5354 9.14405 14.0603 9.41541 14.521C9.68678 14.9817 10.0763 15.3615 10.5437 15.6212C10.0505 15.7427 9.58509 15.9576 9.1727 16.2542C8.69595 15.688 8.0528 15.2864 7.3347 15.1067C7.69089 14.8824 7.98455 14.5717 8.18833 14.2033C8.39211 13.835 8.4994 13.4212 8.5002 13.0002C8.5002 11.6217 7.3787 10.5002 6.0002 10.5002C4.6217 10.5002 3.5002 11.6217 3.5002 13.0002C3.5002 13.8862 3.9667 14.6612 4.6637 15.1057C3.1372 15.4822 2.0002 16.8592 2.0002 18.5002V19.5002C2.0002 20.3272 2.6732 21.0002 3.5002 21.0002H7.5002C7.5002 21.8272 8.1732 22.5002 9.0002 22.5002H15.0002C15.8272 22.5002 16.5002 21.8272 16.5002 21.0002H20.5002C21.3272 21.0002 22.0002 20.3272 22.0002 19.5002V18.5002C22.0002 16.8592 20.8632 15.4817 19.3367 15.1057ZM18.0002 11.5002C18.8272 11.5002 19.5002 12.1732 19.5002 13.0002C19.5002 13.8272 18.8272 14.5002 18.0002 14.5002C17.1732 14.5002 16.5002 13.8272 16.5002 13.0002C16.5002 12.1732 17.1732 11.5002 18.0002 11.5002ZM12.0002 11.0002C13.1032 11.0002 14.0002 11.8972 14.0002 13.0002C14.0002 14.1032 13.1032 15.0002 12.0002 15.0002C10.8972 15.0002 10.0002 14.1032 10.0002 13.0002C10.0002 11.8972 10.8972 11.0002 12.0002 11.0002ZM6.0002 11.5002C6.8272 11.5002 7.5002 12.1732 7.5002 13.0002C7.5002 13.8272 6.8272 14.5002 6.0002 14.5002C5.1732 14.5002 4.5002 13.8272 4.5002 13.0002C4.5002 12.1732 5.1732 11.5002 6.0002 11.5002ZM3.5002 20.0002C3.2242 20.0002 3.0002 19.7757 3.0002 19.5002V18.5002C3.0002 17.1217 4.1217 16.0002 5.5002 16.0002H6.5002C7.2552 16.0002 7.9687 16.3502 8.4392 16.9307C7.83239 17.6493 7.49972 18.5597 7.5002 19.5002V20.0002H3.5002ZM15.5002 21.0002C15.5002 21.2757 15.2762 21.5002 15.0002 21.5002H9.0002C8.7242 21.5002 8.5002 21.2757 8.5002 21.0002V19.5002C8.5002 17.8457 9.8457 16.5002 11.5002 16.5002H12.5002C14.1547 16.5002 15.5002 17.8457 15.5002 19.5002V21.0002ZM21.0002 19.5002C21.0002 19.7757 20.7762 20.0002 20.5002 20.0002H16.5002V19.5002C16.5007 18.5597 16.168 17.6493 15.5612 16.9307C15.7951 16.6415 16.0904 16.4079 16.4258 16.2469C16.7612 16.086 17.1282 16.0017 17.5002 16.0002H18.5002C19.8787 16.0002 21.0002 17.1217 21.0002 18.5002V19.5002ZM16.8027 7.31822L16.7757 8.30372C16.7716 8.46121 16.8059 8.61732 16.8756 8.7586C16.9453 8.89988 17.0483 9.0221 17.1758 9.1147C17.3032 9.20731 17.4513 9.26754 17.6072 9.29019C17.7631 9.31284 17.9222 9.29723 18.0707 9.24472L18.9997 8.91422L19.9287 9.24472C20.0774 9.2972 20.2366 9.31283 20.3926 9.29027C20.5487 9.26772 20.697 9.20765 20.8247 9.11522C21.0837 8.92722 21.2322 8.62372 21.2237 8.30422L21.1967 7.31822L21.7982 6.53622C21.8944 6.41141 21.9588 6.26501 21.9857 6.1097C22.0125 5.9544 22.0011 5.79489 21.9524 5.645C21.9037 5.49511 21.8191 5.35936 21.7061 5.24953C21.5931 5.1397 21.4549 5.0591 21.3037 5.01472L20.3572 4.73572L19.7997 3.92222C19.7108 3.79195 19.5914 3.68535 19.4519 3.61167C19.3124 3.53799 19.1571 3.49945 18.9993 3.4994C18.8416 3.49935 18.6862 3.53779 18.5467 3.61139C18.4072 3.68498 18.2877 3.79151 18.1987 3.92172L17.6412 4.73522L16.6952 5.01422C16.544 5.05872 16.4059 5.13939 16.2929 5.24926C16.1799 5.35912 16.0953 5.49488 16.0466 5.64477C15.9978 5.79466 15.9863 5.95417 16.0131 6.1095C16.0399 6.26483 16.1041 6.41129 16.2002 6.53622L16.8017 7.31772L16.8027 7.31822ZM18.0957 5.64422C18.206 5.61168 18.3017 5.5421 18.3667 5.44722L18.9752 4.48722L19.6332 5.44722C19.6987 5.54172 19.7937 5.61172 19.9042 5.64422L21.0057 5.92672L20.2957 6.84922C20.2257 6.94022 20.1892 7.05272 20.1922 7.16772L20.2642 8.30272L19.1677 7.91272C19.0594 7.8742 18.941 7.8742 18.8327 7.91272L17.7762 8.33172L17.8077 7.16772C17.8108 7.05283 17.7742 6.94037 17.7042 6.84922L16.9792 5.97372L18.0957 5.64422ZM2.8027 7.31822L2.7757 8.30372C2.77164 8.46121 2.80594 8.61732 2.87564 8.7586C2.94534 8.89988 3.04835 9.0221 3.1758 9.1147C3.30324 9.20731 3.4513 9.26754 3.6072 9.29019C3.7631 9.31284 3.92217 9.29723 4.0707 9.24472L4.9997 8.91422L5.9287 9.24472C6.07739 9.2972 6.23659 9.31283 6.39264 9.29027C6.5487 9.26772 6.69696 9.20765 6.8247 9.11522C7.0837 8.92722 7.2322 8.62372 7.2237 8.30422L7.1967 7.31822L7.7982 6.53622C7.89444 6.41141 7.95879 6.26501 7.98566 6.1097C8.01253 5.9544 8.00111 5.79489 7.95239 5.645C7.90368 5.49511 7.81913 5.35936 7.7061 5.24953C7.59306 5.1397 7.45493 5.0591 7.3037 5.01472L6.3572 4.73572L5.7997 3.92222C5.71076 3.79195 5.59137 3.68535 5.45189 3.61167C5.31242 3.53799 5.15707 3.49945 4.99933 3.4994C4.84159 3.49935 4.68622 3.53779 4.5467 3.61139C4.40718 3.68498 4.28773 3.79151 4.1987 3.92172L3.6412 4.73522L2.6952 5.01422C2.54399 5.05872 2.40591 5.13939 2.29289 5.24926C2.17987 5.35912 2.09533 5.49488 2.04658 5.64477C1.99783 5.79466 1.98635 5.95417 2.01311 6.1095C2.03988 6.26483 2.1041 6.41129 2.2002 6.53622L2.8017 7.31772L2.8027 7.31822ZM4.0957 5.64422C4.206 5.61168 4.30171 5.5421 4.3667 5.44722L4.9752 4.48722L5.6332 5.44722C5.6987 5.54172 5.7937 5.61172 5.9042 5.64422L7.0057 5.92672L6.2957 6.84922C6.2257 6.94022 6.1892 7.05272 6.1922 7.16772L6.2642 8.30272L5.1677 7.91272C5.05936 7.8742 4.94105 7.8742 4.8327 7.91272L3.7762 8.33172L3.8077 7.16772C3.81076 7.05283 3.77422 6.94037 3.7042 6.84922L2.9792 5.97372L4.0957 5.64422ZM9.4647 5.94922L9.4312 7.16822C9.42753 7.31032 9.45233 7.45171 9.50414 7.58407C9.55595 7.71644 9.63372 7.8371 9.73286 7.93895C9.83201 8.0408 9.95054 8.12178 10.0815 8.17713C10.2124 8.23248 10.3531 8.26107 10.4952 8.26122C10.6147 8.26122 10.7352 8.24072 10.8517 8.19972L12.0007 7.79122L13.1497 8.19972C13.3126 8.25734 13.4871 8.27457 13.6581 8.24992C13.8292 8.22528 13.9917 8.15949 14.1317 8.05822C14.2715 7.95649 14.3845 7.82226 14.4609 7.66712C14.5373 7.51199 14.5748 7.34059 14.5702 7.16772L14.5367 5.94922L15.2802 4.98272C15.3855 4.8456 15.4558 4.68491 15.4851 4.51453C15.5144 4.34414 15.5018 4.16919 15.4483 4.00478C15.3949 3.84037 15.3022 3.69145 15.1783 3.57087C15.0544 3.4503 14.903 3.3617 14.7372 3.31272L13.5677 2.96772L12.8787 1.96222C12.7809 1.8197 12.6498 1.70314 12.4968 1.62261C12.3439 1.54208 12.1736 1.5 12.0007 1.5C11.8278 1.5 11.6576 1.54208 11.5046 1.62261C11.3516 1.70314 11.2205 1.8197 11.1227 1.96222L10.4337 2.96772L9.2637 3.31272C9.09794 3.36176 8.94661 3.4504 8.82277 3.571C8.69894 3.6916 8.60632 3.84053 8.55291 4.00494C8.4995 4.16934 8.48692 4.34427 8.51624 4.51462C8.54556 4.68498 8.6159 4.84564 8.7212 4.98272L9.4647 5.94922ZM9.5037 4.31422C9.5142 4.28172 9.5382 4.27472 9.5462 4.27222L10.8867 3.87722C10.9972 3.84478 11.0931 3.77519 11.1582 3.68022L11.9477 2.52772C11.9522 2.52072 11.9667 2.49972 12.0002 2.49972C12.0337 2.49972 12.0487 2.52072 12.0527 2.52772L12.8422 3.68022C12.9072 3.77472 13.0032 3.84472 13.1137 3.87722L14.4537 4.27222C14.4622 4.27472 14.4862 4.28172 14.4967 4.31422C14.5003 4.32411 14.5013 4.33478 14.4994 4.34514C14.4976 4.35551 14.493 4.3652 14.4862 4.37322L13.6342 5.48022C13.5642 5.57122 13.5277 5.68422 13.5307 5.79922L13.5692 7.19522C13.5692 7.20372 13.5702 7.22872 13.5427 7.24872C13.5152 7.26822 13.4912 7.25972 13.4837 7.25722L12.1672 6.78922C12.0589 6.7507 11.9405 6.7507 11.8322 6.78922L10.5157 7.25722C10.506 7.26107 10.4954 7.26231 10.4851 7.26082C10.4747 7.25933 10.4649 7.25516 10.4567 7.24872C10.448 7.24293 10.4409 7.23493 10.4363 7.22554C10.4316 7.21614 10.4295 7.20568 10.4302 7.19522L10.4687 5.79872C10.4718 5.68367 10.4352 5.57107 10.3652 5.47972L9.5132 4.37272C9.50643 4.36467 9.5019 4.35498 9.50006 4.34463C9.49822 4.33427 9.49913 4.32361 9.5027 4.31372L9.5037 4.31422Z" fill="#666666"/>
</svg>
