<svg width="24" height="24" viewBox="0 0 24 24" fill="none" xmlns="http://www.w3.org/2000/svg">
<path d="M16.5221 21.7987H7.57461C6.77961 21.7987 6.13086 21.1499 6.13086 20.3549V3.64492C6.13086 2.84992 6.77961 2.20117 7.57461 2.20117H16.5221C16.9054 2.20117 17.273 2.35316 17.5443 2.62381C17.8157 2.89446 17.9686 3.26167 17.9696 3.64492V20.3549C17.9673 20.7378 17.814 21.1042 17.5429 21.3746C17.2718 21.645 16.905 21.7974 16.5221 21.7987ZM7.57461 3.27367C7.36836 3.27367 7.20336 3.44242 7.20336 3.64492V20.3549C7.20336 20.5612 7.37211 20.7262 7.57461 20.7262H16.5221C16.7284 20.7262 16.8934 20.5574 16.8934 20.3549V3.64492C16.8934 3.43867 16.7246 3.27367 16.5221 3.27367H7.57461Z" fill="#666666"/>
<path d="M8.50098 7.3426H15.6597V8.4151H8.50098V7.3426ZM10.196 10.9201H13.8372V11.9926H10.196V10.9201ZM13.391 18.4951H10.4847C9.53223 18.4951 8.75598 17.7188 8.75598 16.7663C8.75598 15.8138 9.53223 15.0376 10.4847 15.0376H13.391C14.3435 15.0376 15.1197 15.8138 15.1197 16.7663C15.1197 17.7188 14.3435 18.4951 13.391 18.4951ZM10.4847 16.1101C10.1247 16.1101 9.82848 16.4026 9.82848 16.7663C9.82848 17.1263 10.121 17.4226 10.4847 17.4226H13.391C13.751 17.4226 14.0472 17.1301 14.0472 16.7663C14.0472 16.4063 13.7547 16.1101 13.391 16.1101H10.4847ZM22.4097 19.3688H17.186V18.2963H22.4097C22.4847 18.2963 22.5447 18.2363 22.5447 18.1613V5.83885C22.5447 5.76385 22.4847 5.70385 22.4097 5.70385H17.186V4.63135H22.4097C23.0735 4.63135 23.6172 5.17135 23.6172 5.83885V18.1613C23.6172 18.8288 23.0772 19.3688 22.4097 19.3688Z" fill="#666666"/>
<path d="M17.1861 8.9251H20.7636V9.9976H17.1861V8.9251ZM19.2598 16.6951H17.3436V15.6226H19.2598C19.5223 15.6226 19.7323 15.4088 19.7323 15.1501C19.7323 14.8913 19.5186 14.6776 19.2598 14.6776H17.3436V13.6051H19.2598C20.1111 13.6051 20.8048 14.2988 20.8048 15.1501C20.8048 16.0013 20.1111 16.6951 19.2598 16.6951ZM6.81357 19.3688H1.58982C0.926074 19.3688 0.382324 18.8288 0.382324 18.1613V5.83885C0.382324 5.1751 0.922324 4.63135 1.58982 4.63135H6.81357V5.70385H1.58982C1.51482 5.70385 1.45482 5.76385 1.45482 5.83885V18.1613C1.45482 18.2363 1.51482 18.2963 1.58982 18.2963H6.81357V19.3688Z" fill="#666666"/>
<path d="M3.23215 8.9248H6.80965V9.9973H3.23215V8.9248ZM6.6634 16.6948H4.74715C3.8959 16.6948 3.20215 16.0011 3.20215 15.1498C3.20215 14.2986 3.8959 13.6048 4.74715 13.6048H6.6634V14.6773H4.74715C4.48465 14.6773 4.27465 14.8911 4.27465 15.1498C4.27465 15.4086 4.4884 15.6223 4.74715 15.6223H6.6634V16.6948Z" fill="#666666"/>
</svg>
