<svg width="24" height="24" viewBox="0 0 24 24" fill="none" xmlns="http://www.w3.org/2000/svg">
<path d="M20.3333 5H3.66668C2.74746 5 2 5.74746 2 6.66668V18.3334C2 19.2525 2.74746 20 3.66668 20H20.3334C21.2525 20 22 19.2525 22 18.3333V6.66668C22 5.74746 21.2525 5 20.3333 5ZM3.66668 5.83332H20.3334C20.3948 5.83332 20.4489 5.8557 20.5065 5.86836C19.0636 7.18895 14.279 11.566 12.6047 13.0745C12.4737 13.1925 12.2625 13.3333 12 13.3333C11.7376 13.3333 11.5264 13.1925 11.395 13.0741C9.72078 11.5658 4.93598 7.18855 3.49328 5.86844C3.55102 5.85578 3.60523 5.83332 3.66668 5.83332ZM2.83332 18.3333V6.66668C2.83332 6.58504 2.85793 6.51098 2.87996 6.43637C3.98434 7.44715 7.32277 10.5012 9.48746 12.4697C7.3298 14.3231 3.99051 17.489 2.87734 18.5505C2.8577 18.4796 2.83332 18.4104 2.83332 18.3333ZM20.3333 19.1667H3.66668C3.60012 19.1667 3.54094 19.1435 3.47879 19.1286C4.62906 18.0321 7.98961 14.8479 10.1093 13.0345C10.3516 13.2544 10.5941 13.4739 10.8371 13.693C11.1805 14.0031 11.5825 14.1667 12 14.1667C12.4175 14.1667 12.8195 14.0031 13.1625 13.6934C13.4056 13.4742 13.6483 13.2545 13.8907 13.0345C16.0105 14.8477 19.3706 18.0316 20.5212 19.1286C20.4591 19.1435 20.4 19.1667 20.3333 19.1667ZM21.1667 18.3333C21.1667 18.4103 21.1423 18.4796 21.1227 18.5505C20.0091 17.4885 16.6702 14.3229 14.5126 12.4697C16.6773 10.5013 20.0153 7.44746 21.12 6.43629C21.1421 6.5109 21.1667 6.585 21.1667 6.66664V18.3333Z" fill="#666666"/>
</svg>
