<svg width="96" height="96" viewBox="0 0 96 96" fill="none" xmlns="http://www.w3.org/2000/svg">
<path d="M0 48C0 21.4903 21.4903 0 48 0C74.5097 0 96 21.4903 96 48C96 74.5097 74.5097 96 48 96C21.4903 96 0 74.5097 0 48Z" fill="#F9F9F9"/>
<path fill-rule="evenodd" clip-rule="evenodd" d="M31.8161 60.7345C32.3494 60.9915 32.9338 61.125 33.5259 61.1251H62.4374C62.8653 61.1251 63.2903 61.0553 63.6957 60.9185L52.2885 48.9925C51.7667 49.4936 51.2444 49.9941 50.7215 50.4941C49.9888 51.195 49.0139 51.5862 47.9999 51.5862C46.9859 51.5862 46.011 51.195 45.2783 50.4941C44.7537 49.9926 44.1032 49.3685 43.3694 48.6641L31.8161 60.7345ZM65.4715 36.3031C61.7105 39.9293 57.9472 43.553 54.1815 47.1744L65.768 59.2876C66.1646 58.659 66.375 57.9309 66.3749 57.1876V38.8126C66.3749 37.8928 66.0532 37.0062 65.4715 36.3031ZM30.5099 36.2812C29.9146 36.9904 29.5883 37.8867 29.5884 38.8126V57.1876C29.5884 57.7696 29.7175 58.3444 29.9664 58.8705L41.4765 46.8451C37.8187 43.3262 34.1631 39.8049 30.5099 36.2812Z" fill="#024E40"/>
<path fill-rule="evenodd" clip-rule="evenodd" d="M32.8892 34.9271L47.0927 48.5972C47.3369 48.831 47.6619 48.9614 47.9999 48.9614C48.3379 48.9614 48.6629 48.831 48.9071 48.5972C52.1697 45.4762 60.2202 37.7192 63.1107 34.933C62.8883 34.8944 62.6631 34.875 62.4374 34.875H33.5259C33.3113 34.875 33.0983 34.8926 32.8892 34.9271Z" fill="#024E40"/>
</svg>
