<svg width="96" height="96" viewBox="0 0 96 96" fill="none" xmlns="http://www.w3.org/2000/svg">
<path d="M0 48C0 21.4903 21.4903 0 48 0C74.5097 0 96 21.4903 96 48C96 74.5097 74.5097 96 48 96C21.4903 96 0 74.5097 0 48Z" fill="#F9F9F9"/>
<g clip-path="url(#clip0_515_514)">
<path d="M52.4234 38.5944C52.4234 41.0328 50.4393 43.0177 48 43.0177C45.5608 43.0177 43.5767 41.0328 43.5767 38.5944C43.5767 36.1551 45.5608 34.1702 48 34.1702C50.4393 34.1702 52.4234 36.1551 52.4234 38.5944Z" fill="#024E40"/>
<path d="M57.5 31.6038C55.2404 28.7216 51.6922 27 47.9996 27C44.3071 27 40.7589 28.7216 38.4993 31.6038C35.9509 34.8542 35.4949 38.7715 36.8343 42.5994C38.122 46.2796 40.8565 49.348 43.0924 52.5107C44.1537 54.0125 45.9671 56.5772 47.067 58.134C47.5223 58.7778 48.477 58.7778 48.9322 58.134C50.032 56.5773 51.8455 54.0125 52.9068 52.5107C55.1427 49.3479 57.8773 46.2796 59.1649 42.5994C60.5044 38.7715 60.0484 34.8542 57.5 31.6038ZM47.9996 45.4783C44.2037 45.4783 41.1157 42.3902 41.1157 38.5944C41.1157 34.7985 44.2037 31.7096 47.9996 31.7096C51.7956 31.7096 54.8836 34.7985 54.8836 38.5944C54.8836 42.3903 51.7956 45.4783 47.9996 45.4783Z" fill="#024E40"/>
<path d="M60.2536 60.8061C60.2536 61.2285 60.037 61.6206 59.6802 61.8461L48.6568 68.8096C48.4559 68.9368 48.2279 68.9999 47.9998 68.9999C47.7718 68.9999 47.5438 68.9368 47.3428 68.8096L36.3193 61.8461C36.1437 61.7353 35.9991 61.5817 35.8989 61.3999C35.7987 61.218 35.7461 61.0138 35.7461 60.8061C35.7461 60.5985 35.7987 60.3942 35.8989 60.2124C35.9991 60.0306 36.1437 59.877 36.3193 59.7662L42.4634 55.885L45.0578 59.5546C45.732 60.5076 46.8318 61.0777 47.9998 61.0777C49.1678 61.0777 50.2676 60.5076 50.9419 59.5546L52.6142 57.1883L53.5354 55.885L59.6803 59.7662C59.8559 59.877 60.0005 60.0305 60.1008 60.2124C60.201 60.3942 60.2536 60.5985 60.2536 60.8061Z" fill="#024E40"/>
</g>
<defs>
<clipPath id="clip0_515_514">
<rect width="42" height="42" fill="white" transform="translate(27 27)"/>
</clipPath>
</defs>
</svg>
