<svg width="96" height="96" viewBox="0 0 96 96" fill="none" xmlns="http://www.w3.org/2000/svg">
<path d="M0 48C0 21.4903 21.4903 0 48 0C74.5097 0 96 21.4903 96 48C96 74.5097 74.5097 96 48 96C21.4903 96 0 74.5097 0 48Z" fill="#F9F9F9"/>
<path d="M55.049 51.094C55.9678 50.6407 57.0965 50.1875 58.4983 50.1875C59.9 50.1875 61.0288 50.6425 61.9493 51.094C62.2608 51.2463 62.532 51.388 62.777 51.5175C63.3195 51.8027 63.743 52.025 64.2348 52.172C64.5498 52.2682 64.877 52.3662 65.1063 52.452C65.4355 52.5613 65.7354 52.7445 65.983 52.9875C66.2455 53.264 66.368 53.5685 66.4398 53.803C66.4993 53.9972 66.5483 54.258 66.5833 54.44C67.558 59.5798 65.4108 64.548 60.1363 66.466C59.6585 66.641 59.1842 66.8125 58.5018 66.8125C57.8193 66.8125 57.3433 66.6393 56.8655 66.466C51.5928 64.548 49.442 59.5798 50.4167 54.44C50.4517 54.258 50.5008 53.9972 50.5603 53.803C50.6303 53.5685 50.7528 53.264 51.0153 52.9875C51.2633 52.7443 51.5639 52.5611 51.8938 52.452C52.1213 52.368 52.4503 52.2682 52.7653 52.172C53.2553 52.0233 53.6788 51.8027 54.2213 51.5175C54.4663 51.388 54.7375 51.248 55.049 51.094ZM37.0625 38.375C37.0625 37.1685 37.3001 35.9738 37.7619 34.8591C38.2236 33.7444 38.9003 32.7316 39.7535 31.8785C40.6066 31.0253 41.6194 30.3486 42.7341 29.8869C43.8488 29.4251 45.0435 29.1875 46.25 29.1875C47.4565 29.1875 48.6512 29.4251 49.7659 29.8869C50.8806 30.3486 51.8934 31.0253 52.7465 31.8785C53.5997 32.7316 54.2764 33.7444 54.7381 34.8591C55.1999 35.9738 55.4375 37.1685 55.4375 38.375C55.4375 40.8117 54.4695 43.1486 52.7465 44.8715C51.0236 46.5945 48.6867 47.5625 46.25 47.5625C43.8133 47.5625 41.4764 46.5945 39.7535 44.8715C38.0305 43.1486 37.0625 40.8117 37.0625 38.375Z" fill="#024E40"/>
<path d="M50.0948 64.6774C50.8736 65.7134 51.2621 66.2314 51.1168 66.5219C50.9716 66.8124 50.3748 66.8124 49.1831 66.8124H38.5326C35.3511 66.8124 32.8906 65.2479 30.8413 63.2949C29.6513 62.1626 29.0598 60.8886 29.2086 59.5307C29.3486 58.2531 30.1151 57.2119 30.9236 56.4209C32.2151 55.1556 34.1016 54.0934 35.3476 53.3881C35.6328 53.2271 35.8848 53.0854 36.0878 52.9646C38.3428 51.6248 40.842 50.7473 43.4396 50.3834C45.3016 50.1209 47.1951 50.1209 49.0571 50.3834C49.3651 50.4271 49.4578 50.8419 49.2339 51.0571C48.6748 51.6084 48.2658 52.2933 48.0456 53.0469C47.9459 53.3794 47.8741 53.7591 47.8444 53.9219L47.8391 53.9516C47.1129 57.7806 47.8409 61.6849 50.0931 64.6791L50.0948 64.6774Z" fill="#024E40"/>
</svg>
